<svg id="visual" viewBox="0 0 900 600" width="900" height="600" xmlns="http://www.w3.org/2000/svg" xmlns:xlink="http://www.w3.org/1999/xlink" version="1.1"><path d="M0 289L129 289L129 307L257 307L257 288L386 288L386 341L514 341L514 345L643 345L643 351L771 351L771 263L900 263L900 302L900 601L900 601L771 601L771 601L643 601L643 601L514 601L514 601L386 601L386 601L257 601L257 601L129 601L129 601L0 601Z" fill="#00fffe"></path><path d="M0 423L129 423L129 401L257 401L257 457L386 457L386 351L514 351L514 399L643 399L643 433L771 433L771 431L900 431L900 462L900 601L900 601L771 601L771 601L643 601L643 601L514 601L514 601L386 601L386 601L257 601L257 601L129 601L129 601L0 601Z" fill="#08b7ae"></path><path d="M0 521L129 521L129 525L257 525L257 451L386 451L386 442L514 442L514 492L643 492L643 487L771 487L771 461L900 461L900 539L900 601L900 601L771 601L771 601L643 601L643 601L514 601L514 601L386 601L386 601L257 601L257 601L129 601L129 601L0 601Z" fill="#017468"></path></svg>