<svg id="visual" viewBox="0 0 900 600" width="900" height="600" xmlns="http://www.w3.org/2000/svg" xmlns:xlink="http://www.w3.org/1999/xlink" version="1.1"><path d="M0 164L100 164L100 181L200 181L200 170L300 170L300 210L400 210L400 156L500 156L500 209L600 209L600 244L700 244L700 165L800 165L800 207L900 207L900 164L900 0L900 0L800 0L800 0L700 0L700 0L600 0L600 0L500 0L500 0L400 0L400 0L300 0L300 0L200 0L200 0L100 0L100 0L0 0Z" fill="#017468"></path><path d="M0 164L100 164L100 173L200 173L200 159L300 159L300 96L400 96L400 163L500 163L500 121L600 121L600 146L700 146L700 91L800 91L800 93L900 93L900 114L900 0L900 0L800 0L800 0L700 0L700 0L600 0L600 0L500 0L500 0L400 0L400 0L300 0L300 0L200 0L200 0L100 0L100 0L0 0Z" fill="#08b7ae"></path><path d="M0 64L100 64L100 107L200 107L200 96L300 96L300 105L400 105L400 97L500 97L500 74L600 74L600 92L700 92L700 66L800 66L800 94L900 94L900 56L900 0L900 0L800 0L800 0L700 0L700 0L600 0L600 0L500 0L500 0L400 0L400 0L300 0L300 0L200 0L200 0L100 0L100 0L0 0Z" fill="#00fffe"></path></svg>