<svg id="visual" viewBox="0 0 900 450" width="900" height="450" xmlns="http://www.w3.org/2000/svg" xmlns:xlink="http://www.w3.org/1999/xlink" version="1.1"><path d="M0 97L100 97L100 73L200 73L200 95L300 95L300 90L400 90L400 81L500 81L500 79L600 79L600 56L700 56L700 65L800 65L800 76L900 76L900 61L900 0L900 0L800 0L800 0L700 0L700 0L600 0L600 0L500 0L500 0L400 0L400 0L300 0L300 0L200 0L200 0L100 0L100 0L0 0Z" fill="#017468"></path><path d="M0 53L100 53L100 77L200 77L200 76L300 76L300 64L400 64L400 64L500 64L500 50L600 50L600 44L700 44L700 56L800 56L800 74L900 74L900 54L900 0L900 0L800 0L800 0L700 0L700 0L600 0L600 0L500 0L500 0L400 0L400 0L300 0L300 0L200 0L200 0L100 0L100 0L0 0Z" fill="#05958a"></path><path d="M0 53L100 53L100 52L200 52L200 34L300 34L300 62L400 62L400 34L500 34L500 47L600 47L600 42L700 42L700 52L800 52L800 58L900 58L900 49L900 0L900 0L800 0L800 0L700 0L700 0L600 0L600 0L500 0L500 0L400 0L400 0L300 0L300 0L200 0L200 0L100 0L100 0L0 0Z" fill="#08b7ae"></path><path d="M0 46L100 46L100 47L200 47L200 32L300 32L300 24L400 24L400 38L500 38L500 37L600 37L600 37L700 37L700 46L800 46L800 38L900 38L900 25L900 0L900 0L800 0L800 0L700 0L700 0L600 0L600 0L500 0L500 0L400 0L400 0L300 0L300 0L200 0L200 0L100 0L100 0L0 0Z" fill="#07dad5"></path><path d="M0 23L100 23L100 27L200 27L200 16L300 16L300 26L400 26L400 29L500 29L500 18L600 18L600 29L700 29L700 13L800 13L800 27L900 27L900 30L900 0L900 0L800 0L800 0L700 0L700 0L600 0L600 0L500 0L500 0L400 0L400 0L300 0L300 0L200 0L200 0L100 0L100 0L0 0Z" fill="#00fffe"></path></svg>