<svg id="visual" viewBox="0 0 900 450" width="900" height="450" xmlns="http://www.w3.org/2000/svg" xmlns:xlink="http://www.w3.org/1999/xlink" version="1.1"><path d="M0 61L75 61L75 62L150 62L150 71L225 71L225 98L300 98L300 93L375 93L375 62L450 62L450 82L525 82L525 55L600 55L600 86L675 86L675 80L750 80L750 94L825 94L825 52L900 52L900 96L900 0L900 0L825 0L825 0L750 0L750 0L675 0L675 0L600 0L600 0L525 0L525 0L450 0L450 0L375 0L375 0L300 0L300 0L225 0L225 0L150 0L150 0L75 0L75 0L0 0Z" fill="#017468"></path><path d="M0 52L75 52L75 66L150 66L150 80L225 80L225 48L300 48L300 74L375 74L375 59L450 59L450 79L525 79L525 51L600 51L600 53L675 53L675 62L750 62L750 71L825 71L825 62L900 62L900 48L900 0L900 0L825 0L825 0L750 0L750 0L675 0L675 0L600 0L600 0L525 0L525 0L450 0L450 0L375 0L375 0L300 0L300 0L225 0L225 0L150 0L150 0L75 0L75 0L0 0Z" fill="#05958a"></path><path d="M0 57L75 57L75 64L150 64L150 40L225 40L225 34L300 34L300 48L375 48L375 57L450 57L450 49L525 49L525 33L600 33L600 62L675 62L675 56L750 56L750 51L825 51L825 40L900 40L900 46L900 0L900 0L825 0L825 0L750 0L750 0L675 0L675 0L600 0L600 0L525 0L525 0L450 0L450 0L375 0L375 0L300 0L300 0L225 0L225 0L150 0L150 0L75 0L75 0L0 0Z" fill="#08b7ae"></path><path d="M0 37L75 37L75 42L150 42L150 34L225 34L225 37L300 37L300 34L375 34L375 44L450 44L450 24L525 24L525 39L600 39L600 44L675 44L675 32L750 32L750 35L825 35L825 41L900 41L900 44L900 0L900 0L825 0L825 0L750 0L750 0L675 0L675 0L600 0L600 0L525 0L525 0L450 0L450 0L375 0L375 0L300 0L300 0L225 0L225 0L150 0L150 0L75 0L75 0L0 0Z" fill="#07dad5"></path><path d="M0 23L75 23L75 14L150 14L150 16L225 16L225 22L300 22L300 30L375 30L375 25L450 25L450 17L525 17L525 18L600 18L600 30L675 30L675 21L750 21L750 23L825 23L825 24L900 24L900 29L900 0L900 0L825 0L825 0L750 0L750 0L675 0L675 0L600 0L600 0L525 0L525 0L450 0L450 0L375 0L375 0L300 0L300 0L225 0L225 0L150 0L150 0L75 0L75 0L0 0Z" fill="#00fffe"></path></svg>